<?xml version="1.0" encoding="UTF-8"?>
<svg id="Layer_5" data-name="Layer 5" xmlns="http://www.w3.org/2000/svg" viewBox="0 0 1000 1000">
  <g>
    <rect x="380.1" y="315.41" width="66.47" height="25.27" rx="12.64" ry="12.64" fill="#89de00"/>
    <rect x="379.9" y="410.2" width="66.47" height="25.27" rx="12.64" ry="12.64" fill="#89de00"/>
    <rect x="380.1" y="505" width="66.47" height="25.27" rx="12.64" ry="12.64" fill="#89de00"/>
    <rect x="560.86" y="315.41" width="66.47" height="25.27" rx="12.64" ry="12.64" fill="#89de00"/>
    <rect x="560.66" y="410.2" width="66.47" height="25.27" rx="12.64" ry="12.64" fill="#89de00"/>
    <rect x="560.86" y="505" width="66.47" height="25.27" rx="12.64" ry="12.64" fill="#89de00"/>
    <g>
      <path d="M633.67,224.93h-260.26c-28.01,0-50.73,22.71-50.73,50.73v290.84c0,28.02,22.72,50.73,50.73,50.73h260.26c28.02,0,50.73-22.71,50.73-50.73v-290.84c0-28.02-22.71-50.73-50.73-50.73ZM659.32,564.95c0,15.02-12.18,27.2-27.2,27.2h-256.79c-15.03,0-27.2-12.18-27.2-27.2v-287.74c0-15.02,12.17-27.2,27.2-27.2h256.79c15.02,0,27.2,12.18,27.2,27.2v287.74Z" fill="#333"/>
      <g>
        <g>
          <g>
            <g>
              <path d="M506.39,292.36c-2.63-.14-5.57,1.77-7.19,3.81,0,0-.53.67-.93,1.42-2.56,4.84-34.32,138.26-20.21,140.62,11.54,1.93,24.87-88.64,35.98-122.37.5-1.52,1.23-7,.05-14.46-.16-1.01-2.84-8.75-7.7-9.01Z" fill="#333"/>
              <path d="M498.09,549.1c2.62.31,5.68-1.41,7.42-3.34,0,0,.57-.63,1.02-1.35,2.87-4.67,43.15-135.76,29.22-139.03-11.39-2.67-30.52,86.85-43.78,119.8-.6,1.48-1.67,6.91-.99,14.43.09,1.02,2.27,8.92,7.1,9.49Z" fill="#333"/>
              <path d="M457.38,430.55l40.4-131.37c.21-.69,1.11-.88,1.58-.33l14.41,16.68c.17.2.25.45.22.71l-10.14,88.05c-.06.55.37,1.03.92,1.03h40.97c2.25,0,4.1,1.77,4.21,4.02v.1c.15,3.44-.57,6.3-1.43,9.31s-40.28,18.34-43.08,19.43c-.11.04-.22.06-.33.06h-44.01c-1.5,0-2.88-.87-3.48-2.24-.07-.16-.14-.34-.2-.52-.56-1.58-.52-3.32-.03-4.92Z" fill="#333"/>
              <polygon points="491.97 525.18 505.27 438.24 548.51 418.75 534.49 456.67 526.25 478.93 491.97 525.18" fill="#333"/>
            </g>
            <polygon points="492.75 525.49 491.55 526.65 492.32 522.9 492.75 525.49" fill="#333"/>
          </g>
          <polygon points="493.17 517.39 491.2 528.53 496.71 524.42 493.17 517.39" fill="#333"/>
        </g>
        <polyline points="523.29 489.96 516.74 464.62 533.69 458.82" fill="#333"/>
      </g>
      <rect x="369.63" y="190.82" width="87.37" height="54.18" rx="12.64" ry="12.64" fill="#333"/>
      <rect x="550.41" y="190.82" width="87.37" height="54.18" rx="12.64" ry="12.64" fill="#333"/>
    </g>
  </g>
  <g>
    <path d="M315.59,696.41v14.33c-6.99-5.85-14.22-8.77-21.7-8.77-8.24,0-15.18,2.96-20.82,8.88-5.68,5.88-8.51,13.08-8.51,21.59s2.84,15.5,8.51,21.28c5.68,5.78,12.63,8.67,20.87,8.67,4.26,0,7.87-.69,10.85-2.08,1.66-.69,3.38-1.63,5.16-2.8,1.78-1.18,3.66-2.59,5.63-4.26v14.59c-6.92,3.91-14.19,5.87-21.8,5.87-11.45,0-21.23-4-29.33-11.99-8.06-8.06-12.09-17.79-12.09-29.17,0-10.21,3.37-19.31,10.12-27.3,8.31-9.79,19.05-14.69,32.24-14.69,7.2,0,14.15,1.96,20.87,5.87Z" fill="#333"/>
    <path d="M387.84,703.47h-32.13v19.26h31.2v11.37h-31.2v26.78h32.13v11.37h-44.23v-80.15h44.23v11.37Z" fill="#333"/>
    <path d="M428.57,692.11v68.78h23.57v11.37h-35.66v-80.15h12.09Z" fill="#333"/>
    <path d="M488.46,692.11v68.78h23.57v11.37h-35.66v-80.15h12.09Z" fill="#333"/>
    <path d="M548.35,692.11v80.15h-12.09v-80.15h12.09Z" fill="#333"/>
    <path d="M592.46,692.11v48.27c0,6.89,1.12,11.92,3.37,15.11,3.36,4.6,8.08,6.9,14.17,6.9s10.87-2.3,14.22-6.9c2.25-3.08,3.37-8.11,3.37-15.11v-48.27h12.1v51.6c0,8.44-2.63,15.4-7.89,20.87-5.92,6.09-13.19,9.14-21.8,9.14s-15.87-3.04-21.75-9.14c-5.26-5.47-7.89-12.42-7.89-20.87v-51.6h12.09Z" fill="#333"/>
    <path d="M668.86,772.25l16.87-86.17,27.51,62.29,28.5-62.29,15.16,86.17h-12.41l-7.73-48.38-23.72,52.06-23.05-52.12-8.62,48.43h-12.51Z" fill="#333"/>
  </g>
</svg>